<svg width="96" height="96" viewBox="0 0 96 96" fill="none" xmlns="http://www.w3.org/2000/svg">
<path d="M0 48C0 21.4903 21.4903 0 48 0V0C74.5097 0 96 21.4903 96 48V48C96 74.5097 74.5097 96 48 96V96C21.4903 96 0 74.5097 0 48V48Z" fill="#EE6666"/>
<path d="M43 33V47.6748L31.8115 63.0596C30.6992 64.5879 30.542 66.584 31.3994 68.2686C32.2569 69.9531 33.9649 71 35.8555 71H60.1446C62.0352 71 63.7432 69.9531 64.6006 68.2686C65.458 66.584 65.3008 64.5879 64.1885 63.0596L53 47.6748V33H43Z" fill="white"/>
<path d="M56.125 33C56.6777 33 57.125 32.5527 57.125 32V26C57.125 25.4473 56.6777 25 56.125 25H40C39.4473 25 39 25.4473 39 26V32C39 32.5527 39.4473 33 40 33H43H53H56.125Z" fill="white"/>
<path d="M54.1084 56H41.8916L35.0459 65.4131C34.8203 65.7227 34.7901 66.1123 34.9639 66.4541C35.1387 66.7959 35.4717 67 35.8555 67H60.1446C60.5283 67 60.8614 66.7959 61.0362 66.4541C61.21 66.1123 61.1797 65.7226 60.9531 65.4121L54.1084 56Z" fill="#11BB66"/>
<path d="M53 33H43V36H53V33Z" fill="#CCCCCC"/>
<path d="M44 65C45.1046 65 46 64.1046 46 63C46 61.8954 45.1046 61 44 61C42.8954 61 42 61.8954 42 63C42 64.1046 42.8954 65 44 65Z" fill="#AADD66"/>
<path d="M51 63C52.1046 63 53 62.1046 53 61C53 59.8954 52.1046 59 51 59C49.8954 59 49 59.8954 49 61C49 62.1046 49.8954 63 51 63Z" fill="#AADD66"/>
</svg>
