<svg width="96" height="96" viewBox="0 0 96 96" fill="none" xmlns="http://www.w3.org/2000/svg">
<path d="M0 48C0 21.4903 21.4903 0 48 0V0C74.5097 0 96 21.4903 96 48V48C96 74.5097 74.5097 96 48 96V96C21.4903 96 0 74.5097 0 48V48Z" fill="#EECC66"/>
<path d="M56.8542 33.1782C56.0106 34.1905 57.1614 36.6093 56.8542 38.0972C56.4448 40.0799 54.8866 41.0486 55.8704 42.0324C56.391 42.553 57.8527 44.0842 63.8943 45.7435C64.4006 41.0865 62.8761 36.2487 59.3137 32.6863C59.0602 32.4328 58.7981 32.1935 58.5323 31.9606C58.0325 32.1777 57.3989 32.5245 56.8542 33.1782Z" fill="#11BB66"/>
<path d="M35.2106 44.9838C36.7129 44.6045 38.6552 43.5997 39.1458 41.0486C39.4721 39.352 39.2237 37.0355 40.1296 36.1296C41.3335 34.9257 44.6994 37.4096 47.0162 37.1134C49.0644 36.8516 50.1363 33.8309 50.4327 32.657C50.7342 31.4625 50.6613 29.4715 50.5164 28.2088C45.6271 27.4363 40.4463 28.9263 36.6863 32.6863C33.2901 36.0824 31.7473 40.6378 32.0488 45.0905C33.0932 45.1744 34.61 45.1355 35.2106 44.9838Z" fill="#11BB66"/>
<path d="M63.8943 45.7435C57.8527 44.0842 56.391 42.553 55.8704 42.0324C54.8866 41.0486 56.4448 40.0799 56.8542 38.0972C57.1614 36.6094 56.0106 34.1905 56.8542 33.1782C57.3989 32.5245 58.0325 32.1777 58.5323 31.9607C56.1986 29.9166 53.4095 28.6659 50.5164 28.2088C50.6613 29.4715 50.7342 31.4625 50.4327 32.657C50.1364 33.8309 49.0644 36.8516 47.0162 37.1134C44.6994 37.4096 41.3335 34.9257 40.1296 36.1296C39.2237 37.0355 39.4721 39.3521 39.1458 41.0486C38.6552 43.5997 36.7129 44.6045 35.2106 44.9838C34.61 45.1355 33.0932 45.1744 32.0489 45.0905C32.3013 48.8169 33.8441 52.4715 36.6863 55.3137C42.9246 61.5521 53.0754 61.5521 59.3137 55.3137C61.9896 52.6378 63.5141 49.2416 63.8943 45.7435ZM42.0972 51.8704C41.6053 49.4109 44.6387 49.8208 47.1251 44.9028C48.1652 42.8456 51.6181 43.493 53.5198 45.3947C55.4215 47.2964 55.6196 50.1375 54.0117 51.7894C51.0194 54.8638 42.6989 54.8789 42.0972 51.8704Z" fill="#3388DD"/>
<path d="M53.5198 45.3947C51.6182 43.493 48.1652 42.8455 47.1251 44.9028C44.6387 49.8208 41.6053 49.4109 42.0972 51.8704C42.6989 54.8789 51.0194 54.8638 54.0117 51.7894C55.6196 50.1375 55.4215 47.2964 53.5198 45.3947Z" fill="#11BB66"/>
<path d="M69 43.9917C69 38.6937 67.0166 33.6959 63.5341 29.879L66.7065 26.7065C67.0972 26.3159 67.0972 25.6831 66.7065 25.2925C66.3159 24.9019 65.6831 24.9019 65.2925 25.2925L62.1124 28.4725C61.2881 27.7255 60.4056 27.0308 59.4546 26.4106C58.9912 26.1089 58.3716 26.2388 58.0708 26.7017C57.769 27.1645 57.8994 27.7842 58.3618 28.0854C63.771 31.6133 67 37.5596 67 43.9917C67 54.4639 58.4766 63 48 63C42.936 63 38.1312 60.9641 34.5999 57.4451C34.5921 57.4368 34.5897 57.4256 34.5815 57.4175C34.5741 57.41 34.564 57.4079 34.5563 57.4007C33.7525 56.5945 33.0145 55.7119 32.3559 54.7578C32.0415 54.3032 31.4194 54.1885 30.9648 54.5024C30.5102 54.8164 30.396 55.4389 30.7095 55.8935C31.2508 56.6779 31.8445 57.414 32.4766 58.1083L29.2925 61.2925C28.9019 61.6831 28.9019 62.3159 29.2925 62.7065C29.4878 62.9018 29.7436 62.9995 29.9995 62.9995C30.2554 62.9995 30.5112 62.9018 30.7065 62.7065L33.8918 59.5212C37.4742 62.7738 42.1 64.7011 47 64.9364V69H40C39.4477 69 39 69.4477 39 70C39 70.5522 39.4477 71 40 71H56C56.5522 71 57 70.5522 57 70C57 69.4477 56.5522 69 56 69H49V64.9327C60.1139 64.4057 69 55.229 69 43.9917Z" fill="#A67C52"/>
</svg>
