<svg width="96" height="96" viewBox="0 0 96 96" fill="none" xmlns="http://www.w3.org/2000/svg">
<g style="mix-blend-mode:multiply">
<path d="M0 48C0 21.4903 21.4903 0 48 0V0C74.5097 0 96 21.4903 96 48V48C96 74.5097 74.5097 96 48 96V96C21.4903 96 0 74.5097 0 48V48Z" fill="#11BB66"/>
<path d="M61.9358 70C61.9736 69.3403 62 68.6752 62 68C62 59.1095 58.6373 51.4696 53.8076 48C58.6373 44.5304 62 36.8905 62 28C62 27.3248 61.9736 26.6597 61.9358 26H34.0642C34.0264 26.6597 34 27.3248 34 28C34 36.8905 37.3627 44.5304 42.1924 48C37.3627 51.4696 34 59.1095 34 68C34 68.6752 34.0264 69.3403 34.0642 70H61.9358Z" fill="white"/>
<path d="M66 25H30C29.4473 25 29 25.4473 29 26V28C29 28.5527 29.4473 29 30 29H66C66.5527 29 67 28.5527 67 28V26C67 25.4473 66.5527 25 66 25Z" fill="#666666"/>
<path d="M66 67H30C29.4473 67 29 67.4473 29 68V70C29 70.5527 29.4473 71 30 71H66C66.5527 71 67 70.5527 67 70V68C67 67.4473 66.5527 67 66 67Z" fill="#666666"/>
<path d="M41.2447 41C42.1824 42.5701 43.288 43.8614 44.5264 44.751L48 47.2471L51.4736 44.751C52.712 43.8614 53.8176 42.5701 54.7553 41H41.2447Z" fill="#EE9966"/>
<path d="M38 65H58C57 61 50.9375 54 48 54C44.9375 54 38.9375 61.0625 38 65Z" fill="#EE9966"/>
</g>
</svg>
