<svg width="96" height="96" viewBox="0 0 96 96" fill="none" xmlns="http://www.w3.org/2000/svg">
<path d="M0 48C0 21.4903 21.4903 0 48 0V0C74.5097 0 96 21.4903 96 48V48C96 74.5097 74.5097 96 48 96V96C21.4903 96 0 74.5097 0 48V48Z" fill="#3388DD"/>
<path d="M36 70C32.691 70 30 67.309 30 64C30 60.691 32.691 58 36 58H67V70H36Z" fill="white"/>
<path d="M66 25H34C31.239 25 29 27.239 29 30V64C29 67.866 32.134 71 36 71H66C66.553 71 67 70.552 67 70C67 69.448 66.553 69 66 69H36.223C33.613 69 31.278 67.097 31.024 64.5C30.733 61.52 33.078 59 36 59H66C66.552 59 67 58.552 67 58V26C67 25.448 66.552 25 66 25Z" fill="#EECC33"/>
<path d="M67 65H35C34.447 65 34 64.552 34 64C34 63.448 34.447 63 35 63H67V65Z" fill="#CCCCCC"/>
<path d="M34 57C33.447 57 33 56.552 33 56V28C33 27.448 33.447 27 34 27C34.553 27 35 27.448 35 28V56C35 56.552 34.553 57 34 57Z" fill="#EE9966"/>
<path d="M57 47H43C42.447 47 42 46.552 42 46V38C42 37.448 42.447 37 43 37H57C57.553 37 58 37.448 58 38V46C58 46.552 57.553 47 57 47Z" fill="#EE9966"/>
</svg>
