<svg width="96" height="96" viewBox="0 0 96 96" fill="none" xmlns="http://www.w3.org/2000/svg">
<path d="M0 48C0 21.4903 21.4903 0 48 0V0C74.5097 0 96 21.4903 96 48V48C96 74.5097 74.5097 96 48 96V96C21.4903 96 0 74.5097 0 48V48Z" fill="#99AADD"/>
<path d="M65 25H32C30.8954 25 30 25.8954 30 27V69C30 70.1046 30.8954 71 32 71H65C66.1046 71 67 70.1046 67 69V27C67 25.8954 66.1046 25 65 25Z" fill="#666666"/>
<path d="M61 31H36C35.4473 31 35 31.4477 35 32V38C35 38.5523 35.4473 39 36 39H61C61.5527 39 62 38.5523 62 38V32C62 31.4477 61.5527 31 61 31Z" fill="white"/>
<path d="M41 43H36C35.4473 43 35 43.4477 35 44V48C35 48.5523 35.4473 49 36 49H41C41.5527 49 42 48.5523 42 48V44C42 43.4477 41.5527 43 41 43Z" fill="#999999"/>
<path d="M51 43H46C45.4473 43 45 43.4477 45 44V48C45 48.5523 45.4473 49 46 49H51C51.5527 49 52 48.5523 52 48V44C52 43.4477 51.5527 43 51 43Z" fill="#999999"/>
<path d="M61 43H56C55.4473 43 55 43.4477 55 44V48C55 48.5523 55.4473 49 56 49H61C61.5527 49 62 48.5523 62 48V44C62 43.4477 61.5527 43 61 43Z" fill="#999999"/>
<path d="M41 51H36C35.4473 51 35 51.4477 35 52V56C35 56.5523 35.4473 57 36 57H41C41.5527 57 42 56.5523 42 56V52C42 51.4477 41.5527 51 41 51Z" fill="#999999"/>
<path d="M51 51H46C45.4473 51 45 51.4477 45 52V56C45 56.5523 45.4473 57 46 57H51C51.5527 57 52 56.5523 52 56V52C52 51.4477 51.5527 51 51 51Z" fill="#999999"/>
<path d="M61 51H56C55.4473 51 55 51.4477 55 52V64C55 64.5523 55.4473 65 56 65H61C61.5527 65 62 64.5523 62 64V52C62 51.4477 61.5527 51 61 51Z" fill="#EE9966"/>
<path d="M41 59H36C35.4473 59 35 59.4477 35 60V64C35 64.5523 35.4473 65 36 65H41C41.5527 65 42 64.5523 42 64V60C42 59.4477 41.5527 59 41 59Z" fill="#999999"/>
<path d="M51 59H46C45.4473 59 45 59.4477 45 60V64C45 64.5523 45.4473 65 46 65H51C51.5527 65 52 64.5523 52 64V60C52 59.4477 51.5527 59 51 59Z" fill="#999999"/>
</svg>
