<svg width="96" height="96" viewBox="0 0 96 96" fill="none" xmlns="http://www.w3.org/2000/svg">
<path d="M0 48C0 21.4903 21.4903 0 48 0V0C74.5097 0 96 21.4903 96 48V48C96 74.5097 74.5097 96 48 96V96C21.4903 96 0 74.5097 0 48V48Z" fill="#666666"/>
<path d="M48 51C46.346 51 45 49.654 45 48C45 46.346 46.346 45 48 45C49.654 45 51 46.346 51 48C51 49.654 49.654 51 48 51Z" fill="#99AADD"/>
<path d="M48 71C43.637 71 39 62.939 39 48C39 33.061 43.637 25 48 25C52.363 25 57 33.061 57 48C57 62.939 52.363 71 48 71ZM48 27C44.689 27 41 35.625 41 48C41 60.375 44.689 69 48 69C51.311 69 55 60.375 55 48C55 35.625 51.311 27 48 27Z" fill="#EECC66"/>
<path d="M61.975 61.998C60.916 61.998 59.745 61.887 58.47 61.662C54.004 60.873 48.688 58.789 43.5 55.794C30.562 48.325 25.899 40.278 28.081 36.5C29.376 34.259 32.727 33.492 37.53 34.338C41.996 35.127 47.312 37.211 52.5 40.206C65.437 47.676 70.101 55.722 67.919 59.5C66.968 61.146 64.905 61.998 61.975 61.998ZM34.012 36.001C31.88 36.001 30.381 36.517 29.814 37.5C28.158 40.367 33.782 47.875 44.5 54.062C49.49 56.943 54.575 58.943 58.817 59.692C62.613 60.363 65.368 59.917 66.186 58.5C67.841 55.633 62.217 48.125 51.499 41.938C46.509 39.057 41.424 37.057 37.182 36.308C36.02 36.102 34.953 36.001 34.012 36.001Z" fill="#EECC66"/>
<path d="M34.025 61.998C31.094 61.998 29.032 61.147 28.081 59.5C25.899 55.722 30.562 47.675 43.5 40.206C48.687 37.211 54.004 35.127 58.47 34.338C63.269 33.492 66.624 34.258 67.919 36.5C70.101 40.278 65.438 48.325 52.5 55.794C47.312 58.789 41.996 60.873 37.53 61.662C36.257 61.887 35.084 61.998 34.025 61.998ZM61.988 36.001C61.046 36.001 59.981 36.102 58.817 36.307C54.575 37.057 49.49 39.056 44.5 41.937C33.782 48.125 28.158 55.633 29.813 58.5C30.631 59.917 33.384 60.362 37.182 59.692C41.424 58.942 46.509 56.943 51.499 54.062C62.218 47.875 67.842 40.367 66.187 37.5C65.619 36.517 64.12 36.001 61.988 36.001Z" fill="#EECC66"/>
</svg>
