<svg width="96" height="96" viewBox="0 0 96 96" fill="none" xmlns="http://www.w3.org/2000/svg">
<path d="M0 48C0 21.4903 21.4903 0 48 0V0C74.5097 0 96 21.4903 96 48V48C96 74.5097 74.5097 96 48 96V96C21.4903 96 0 74.5097 0 48V48Z" fill="#AADD66"/>
<path d="M64.432 37.098C58.904 34.452 53.87 36.045 49.826 37.325C46.225 38.465 44.122 39.028 42.801 37.4C42.399 36.863 42.71 35.828 43.038 34.732C43.52 33.124 44.121 31.123 42.796 29.395C41.087 27.152 37.274 27.471 34.773 29.183C28.653 33.491 25 40.526 25 48C25 60.682 35.318 71 48 71C58.247 71 67.348 64.122 70.143 54.242C70.465 52.94 73.051 41.407 64.432 37.098ZM58 52C55.791 52 54 50.209 54 48C54 45.791 55.791 44 58 44C60.209 44 62 45.791 62 48C62 50.209 60.209 52 58 52Z" fill="#666666"/>
<path d="M34 51C35.6569 51 37 49.6569 37 48C37 46.3431 35.6569 45 34 45C32.3431 45 31 46.3431 31 48C31 49.6569 32.3431 51 34 51Z" fill="#EE6666"/>
<path d="M39 61C40.6569 61 42 59.6569 42 58C42 56.3431 40.6569 55 39 55C37.3431 55 36 56.3431 36 58C36 59.6569 37.3431 61 39 61Z" fill="#EECC33"/>
<path d="M50 65C51.6569 65 53 63.6569 53 62C53 60.3431 51.6569 59 50 59C48.3431 59 47 60.3431 47 62C47 63.6569 48.3431 65 50 65Z" fill="#3388DD"/>
</svg>
